<?xml version="1.0" standalone="no"?>
<!DOCTYPE svg PUBLIC "-//W3C//DTD SVG 20010904//EN"
 "http://www.w3.org/TR/2001/REC-SVG-20010904/DTD/svg10.dtd">
<svg version="1.0" xmlns="http://www.w3.org/2000/svg"
 width="260.000000pt" height="260.000000pt" viewBox="0 0 260.000000 260.000000"
 preserveAspectRatio="xMidYMid meet">
<metadata>
Created by potrace 1.11, written by Peter Selinger 2001-2013
</metadata>
<g transform="translate(0.000000,260.000000) scale(0.100000,-0.100000)"
fill="#000000" stroke="none">
<path d="M815 2434 c-207 -39 -348 -159 -408 -349 -18 -56 -37 -176 -37 -229
l0 -36 -60 0 -60 0 0 -250 0 -250 60 0 60 0 0 -270 0 -270 -60 0 -60 0 0 -250
0 -250 500 0 500 0 0 250 0 250 -105 0 -105 0 0 270 0 270 105 0 105 0 0 250
0 250 -100 0 c-59 0 -100 4 -100 10 0 5 13 24 29 42 l30 33 175 -1 176 0 0
243 0 243 -24 10 c-112 42 -472 62 -621 34z"/>
<path d="M1749 1536 c-2 -2 -22 -6 -44 -9 -108 -14 -231 -72 -286 -134 -93
-106 -112 -282 -44 -412 57 -112 220 -199 419 -226 22 -3 48 -7 56 -9 102 -20
116 -29 106 -71 -4 -14 -17 -30 -29 -35 -21 -9 -301 -6 -342 3 -18 4 -156 21
-180 22 -6 0 -11 -55 -11 -143 l-2 -143 27 -11 c27 -10 129 -31 216 -43 28 -4
128 -9 223 -10 145 -2 185 0 250 17 153 39 249 113 293 227 18 44 22 77 23
156 0 89 -3 107 -28 163 -57 124 -195 203 -396 227 -150 18 -179 25 -194 47
-50 70 75 85 449 52 33 -3 68 -7 78 -10 21 -6 19 -17 21 144 1 111 -1 135 -14
142 -16 8 -135 35 -205 45 -47 7 -380 16 -386 11z"/>
</g>
</svg>
