<?xml version="1.0" encoding="UTF-8" standalone="no"?>
<svg
   xmlns:dc="http://purl.org/dc/elements/1.1/"
   xmlns:cc="http://creativecommons.org/ns#"
   xmlns:rdf="http://www.w3.org/1999/02/22-rdf-syntax-ns#"
   xmlns:svg="http://www.w3.org/2000/svg"
   xmlns="http://www.w3.org/2000/svg"
   version="1.1"
   id="svg2"
   xml:space="preserve"
   width="1050.6801"
   height="254.38667"
   viewBox="0 0 1050.6801 254.38667"><metadata
     id="metadata8"><rdf:RDF><cc:Work
         rdf:about=""><dc:format>image/svg+xml</dc:format><dc:type
           rdf:resource="http://purl.org/dc/dcmitype/StillImage" /><dc:title></dc:title></cc:Work></rdf:RDF></metadata><defs
     id="defs6" /><g
     id="g10"
     transform="matrix(1.3333333,0,0,-1.3333333,0,254.38667)"><g
       id="g12"
       transform="scale(0.1)"><path
         d="M 6582.07,1319.26 V 588.648 c 0,-372.179 127.24,-573.0269 441.09,-573.0269 200.56,0 356.85,96.3789 461.03,268.2889 V 44.2813 H 7880.1 V 1319.26 H 7439.91 V 774.879 c 0,-260.231 -89.86,-394.609 -246.14,-394.609 -148.47,0 -216.18,96.378 -216.18,298.25 v 640.74 h -395.52 z m -385.85,432.37 -410.23,-134.14 v -298.23 h -276.1 V 1006.7 h 246.15 V 552.191 C 5756.04,178.68 5897.99,0 6248.31,0 c 82.05,0 170.61,15.6211 268.28,37.7617 l -7.81,290.4183 c -52.09,-15.621 -82.05,-22.141 -112,-22.141 -148.47,0 -200.56,74.231 -200.56,260.473 V 1006.7 h 312.56 v 312.56 h -312.56 v 432.37 z M 5004.98,1319.26 V 44.2813 h 431.07 V 1319.26 h -431.07 z m 0,588.65 v -356.84 h 431.07 v 356.84 H 5004.98 Z M 4928.41,790.512 c 0,372.468 -171.91,566.518 -477.95,566.518 -200.57,0 -364.66,-97.68 -461.03,-261.78 v 224.01 H 3585.71 V 44.2813 H 4025.9 V 656.371 c 0,216.188 104.18,342.516 253.95,342.516 141.96,0 216.19,-96.457 216.19,-298.246 V 44.2813 h 432.37 V 790.512 Z M 3025.49,626.422 h 75.53 v -37.774 c 0,-178.398 -119.81,-290.418 -268.28,-290.418 -105.48,0 -171.91,67.731 -171.91,149.77 0,134.141 118.52,178.422 364.66,178.422 z m 484.46,89.859 c 0,438.889 -178.42,640.749 -602.97,640.749 -194.06,0 -358.14,-29.96 -506.61,-89.87 l 6.51,-282.605 c 149.77,66.425 283.91,104.195 380.28,104.195 201.86,0 313.86,-82.07 313.86,-216.191 v -22.137 h -171.91 c -462.3,0 -686.33,-127.633 -686.33,-418.051 0,-238.332 164.1,-410.2304 425.87,-410.2304 200.56,0 350.32,67.7188 454.51,224.0004 l 7.82,-201.8597 h 378.97 V 716.281 Z M 1252.84,1088.75 c -75.54,170.6 -216.18,260.46 -418.051,260.46 -186.23,0 -342.508,-89.86 -440.184,-253.96 v 224.01 H 0 V 44.2813 H 432.371 V 656.371 c 0,216.188 104.188,334.699 238.328,334.699 134.141,0 201.86,-88.558 201.86,-290.429 V 44.2813 H 1304.93 V 656.371 c 0,216.188 96.37,334.699 230.51,334.699 134.14,0 201.86,-88.558 201.86,-290.429 V 44.2813 h 432.38 V 790.512 c 0,372.468 -171.91,558.698 -470.14,558.698 -186.23,0 -342.52,-89.86 -446.7,-260.46 v 0"
         style="fill:#3e5ab2;fill-opacity:1;fill-rule:evenodd;stroke:none"
         id="path14" /></g></g></svg>
