<?xml version="1.0" encoding="UTF-8" standalone="no"?><!DOCTYPE svg PUBLIC "-//W3C//DTD SVG 1.1//EN" "http://www.w3.org/Graphics/SVG/1.1/DTD/svg11.dtd"><svg width="100%" height="100%" viewBox="0 0 121 287" version="1.1" xmlns="http://www.w3.org/2000/svg" xmlns:xlink="http://www.w3.org/1999/xlink" xml:space="preserve" xmlns:serif="http://www.serif.com/" style="fill-rule:evenodd;clip-rule:evenodd;stroke-linejoin:round;stroke-miterlimit:1.41421;"><path d="M82.359,193.642c0.654,6.428 1.309,12.856 1.962,19.285c-11.389,-9.981 -22.778,-19.962 -34.167,-29.943c6.228,-41.139 -0.466,-82.312 0.332,-123.466c0.178,-9.219 -0.957,-18.742 1.066,-27.539c1.163,-5.06 8.577,-5.334 13.879,-3.802c10.102,2.918 6.446,11.523 6.309,17.911c-0.756,35.312 -2.048,70.612 -3.094,105.918c-0.278,9.371 -2.712,18.878 1.38,28.011c0.468,1.046 1.702,1.749 2.581,2.612c3.251,3.67 6.501,7.341 9.752,11.013Z" style="fill:#f7f5e0;"/><path d="M50.154,182.984c11.389,9.981 22.778,19.961 34.167,29.942c-0.208,6.5 -0.416,13.001 -0.624,19.501c-2.601,-1.708 -5.203,-3.415 -7.804,-5.122c-1.538,-1.77 -3.076,-3.541 -4.613,-5.311c-2.852,-2.626 -5.703,-5.253 -8.554,-7.88c-0.672,-0.65 -1.345,-1.301 -2.018,-1.953c-6.945,-6.416 -13.891,-12.833 -20.837,-19.249c-8.481,-9.09 -16.962,-18.18 -25.485,-27.316c-2.578,2.444 -3.756,3.561 -5.512,5.225c-0.308,-5.898 -0.587,-11.234 -0.879,-16.841c5.893,0 11.583,0 17.664,0c-1.105,1.212 -2.02,2.216 -3.235,3.548c9.284,8.523 18.507,16.99 27.73,25.456Z" style="fill:#5fb131;"/><path d="M37.232,226.378c-0.223,-6.859 -0.445,-13.718 -0.668,-20.578c2.858,2.757 5.716,5.515 8.573,8.272c1.497,1.503 2.994,3.005 4.491,4.508c2.844,2.858 5.687,5.717 8.53,8.574c2.476,2.518 2.634,-1.002 3.947,-1.515c0.264,6.245 3.881,10.472 8.487,14.106c1.745,1.748 3.49,3.496 5.235,5.245c2.411,2.41 4.822,4.819 7.233,7.229c5.809,5.298 11.617,10.596 17.481,15.946c-4.187,4.062 -7.28,7.062 -10.548,10.233c-2.375,-2.266 -4.959,-4.731 -7.542,-7.197c-1.765,-1.709 -3.53,-3.418 -5.295,-5.128c-2.581,-2.576 -5.161,-5.151 -7.741,-7.727c-1.797,-1.797 -3.594,-3.596 -5.39,-5.394c-2.037,-1.153 -2.269,-5.159 -5.927,-3.751c-0.39,-1.138 -0.78,-2.277 0.112,0.328c-3.684,-4.99 -5.246,-7.105 -7.135,-9.664c0,5.98 0,11.156 0,16.331c-2.436,2.309 -4.871,4.617 -7.306,6.926c0.214,-6.627 0.428,-13.252 0.642,-19.879c1.618,-1.532 3.236,-3.065 5.116,-4.845c-1.874,-1.76 -3.496,-3.285 -5.118,-4.809c-2.393,-2.404 -4.785,-4.808 -7.177,-7.211Z" style="fill:#71b62d;"/><path d="M82.359,193.642c-3.251,-3.672 -6.501,-7.343 -9.752,-11.014c8.778,-8.151 17.557,-16.302 26.399,-24.512c-1.234,-1.366 -2.296,-2.541 -3.693,-4.089c6.135,0 11.738,0 17.832,0c-0.254,5.483 -0.507,10.919 -0.79,17.004c-1.599,-1.425 -2.698,-2.404 -3.664,-3.265c-8.811,8.659 -17.572,17.267 -26.332,25.876Z" style="fill:#5fb131;"/><path d="M58.158,227.154c-2.843,-2.858 -5.686,-5.716 -8.529,-8.574c-0.313,-2.131 -0.625,-4.262 -1.051,-7.167c-1.944,1.503 -2.692,2.081 -3.441,2.659c-2.858,-2.757 -5.716,-5.514 -8.573,-8.272c1.102,-4.296 2.205,-8.591 3.307,-12.887c6.946,6.416 13.892,12.833 20.837,19.249c-5.353,4.232 -1.321,10.06 -2.55,14.992Z" style="fill:#f7f5e0;"/><path d="M39.01,268.352c-2.826,3.281 -5.652,6.563 -8.566,9.949c-3.969,-4.171 -6.948,-7.303 -10.34,-10.868c5.762,-5.646 11.718,-11.481 17.673,-17.317c0.411,6.079 0.822,12.157 1.233,18.236Z" style="fill:#71b62d;"/><path d="M39.01,268.352c-0.411,-6.079 -0.822,-12.157 -1.234,-18.235c-0.181,-7.914 -0.363,-15.826 -0.545,-23.739c2.393,2.403 4.785,4.807 7.177,7.211c0.001,3.218 0.001,6.437 0.003,9.655c-0.214,6.627 -0.428,13.252 -0.643,19.879c0,4.803 0,9.607 0,15.319c-6.423,-2.795 -3.992,-6.97 -4.758,-10.09Z" style="fill:#f7f5e0;"/><path d="M51.075,256.197c0,-5.176 0,-10.351 0,-16.331c1.889,2.558 3.451,4.674 7.136,9.663c-0.892,-2.604 -0.502,-1.466 -0.113,-0.327c-0.779,8.833 -1.558,17.665 -2.373,26.901c-0.95,0.054 -1.914,0.108 -3.386,0.191c-0.439,-6.969 -0.851,-13.533 -1.264,-20.097Z" style="fill:#f7f5e0;"/><path d="M83.06,252.219c-2.411,-2.409 -4.822,-4.819 -7.233,-7.228c0.208,-4.689 0.415,-9.377 0.622,-14.065c-0.185,-1.207 -0.371,-2.414 -0.556,-3.621c2.601,1.707 5.203,3.414 7.804,5.122c-0.212,6.597 -0.424,13.195 -0.637,19.792Z" style="fill:#f7f5e0;"/><path d="M64.025,252.953c1.797,1.798 3.594,3.597 5.39,5.394c0,5.832 0,11.663 0,17.719c-2.302,0 -3.269,0 -5.39,0c0,-7.918 0,-15.515 0,-23.113Z" style="fill:#f7f5e0;"/><path d="M77.157,266.073c1.765,1.71 3.529,3.419 5.294,5.128c-1.618,1.626 0.614,5.41 -4.519,5.949c-0.261,-3.723 -0.518,-7.399 -0.775,-11.077Z" style="fill:#f7f5e0;"/><path d="M70.592,239.745c-4.605,-3.633 -8.222,-7.861 -8.486,-14.106c0.207,-3.841 0.414,-7.682 0.621,-11.524c2.851,2.627 5.702,5.253 8.553,7.88c-0.212,4.767 -0.425,9.534 -0.638,14.301c-0.017,1.15 -0.034,2.3 -0.05,3.449Z" style="fill:#f7f5e0;"/><path d="M70.642,236.296c0.213,-4.767 0.425,-9.534 0.638,-14.301c1.538,1.77 3.076,3.54 4.614,5.31c0.185,1.207 0.37,2.415 0.556,3.622c-1.936,1.789 -3.873,3.579 -5.808,5.369Z" style="fill:#71b62d;"/></svg>